# xmcd
#
# Track frame offsets:
#	150
#	20193
#	36570
#	51250
#	61579
#	74381
#	95263
#	109925
#	125675
#	140306
#	152759
#	168860
#	181709
#
# Disc length: 2682 seconds
#
# Revision: 1
# Processed by: cddbd v1.5.1PL2 Copyright (c) Steve Scherf et al.
# Submitted via: audiograbber 1.83.01
#
DISCID=b10a780d
DTITLE=Bob Delevante - Columbus and the Colossal Mistake
DYEAR=2005
DGENRE=Country
TTITLE0=Columbus And The Colossal Mistake
TTITLE1=Circles Round Me
TTITLE2=Close My Eyes
TTITLE3=An Old Picture Of You
TTITLE4=Fly Home
TTITLE5=Venice Is Sinking
TTITLE6=Like A Meadowlark Blues
TTITLE7=The Things I Long To Hear
TTITLE8=Texarkana State Of Mind
TTITLE9=Paint My House
TTITLE10=THe Garden Wall
TTITLE11=Blitzkrieg Bop
TTITLE12=Texarkana State Of Mind (Jawharp Mix)
EXTD=
EXTT0=
EXTT1=
EXTT2=
EXTT3=
EXTT4=
EXTT5=
EXTT6=
EXTT7=
EXTT8=
EXTT9=
EXTT10=
EXTT11=
EXTT12=
PLAYORDER=
